# MagicaVoxel @ Ephtracy

# group
o 

# material
mtllib BigHouse-2.mtl
usemtl palette

# normals
vn -1 0 0
vn 1 0 0
vn 0 0 -1
vn 0 0 1
vn 0 -1 0
vn 0 1 0

# texcoords
vt 0.982422 0.5
vt 0.986328 0.5

# verts
v -1 -0.6 -0.5
v -1 -0.6 0.7
v -1 0.2 -0.5
v -1 0.2 0.7
v -0.8 -0.6 -0.9
v -0.8 -0.6 -0.5
v -0.8 -0.6 0.7
v -0.8 -0.6 0.9
v -0.8 -0.4 -0.9
v -0.8 -0.4 -0.7
v -0.8 -0.4 -0.5
v -0.8 -0.2 -0.7
v -0.8 -0.2 -0.5
v -0.8 0.2 -0.7
v -0.8 0.2 -0.5
v -0.8 0.2 0.7
v -0.8 0.2 0.9
v -0.6 -5.96046e-008 0.1
v -0.6 -5.96046e-008 0.7
v -0.6 0.2 0.7
v -0.6 0.6 0.1
v -0.6 0.6 0.7
v -0.2 -0.6 -0.9
v -0.2 -0.6 -0.7
v -0.2 -0.4 -0.9
v -0.2 -0.4 -0.7
v -0.2 -0.2 -0.9
v -0.2 -0.2 -0.7
v 0.8 -5.96046e-008 -0.5
v 0.8 -5.96046e-008 0.7
v 0.8 0.2 -0.5
v 0.8 0.2 0.7
v -0.8 -5.96046e-008 -0.5
v -0.8 -5.96046e-008 0.7
v -0.8 0.2 -0.5
v -0.8 0.2 0.7
v -0.4 -0.6 -0.9
v -0.4 -0.6 -0.7
v -0.4 -0.4 -0.9
v -0.4 -0.4 -0.7
v 0 -5.96046e-008 0.1
v 0 -5.96046e-008 0.7
v 0 0.2 0.7
v 0 0.6 0.1
v 0 0.6 0.7
v 0.2 -0.6 -0.9
v 0.2 -0.6 -0.7
v 0.2 -0.4 -0.9
v 0.2 -0.4 -0.7
v 0.2 -0.2 -0.9
v 0.2 -0.2 -0.7
v 0.8 -0.6 -0.7
v 0.8 -0.6 -0.5
v 0.8 -0.6 0.7
v 0.8 -0.6 0.9
v 0.8 -0.4 -0.7
v 0.8 -0.4 -0.5
v 0.8 -0.2 -0.7
v 0.8 -0.2 -0.5
v 0.8 0.2 -0.7
v 0.8 0.2 -0.5
v 0.8 0.2 0.7
v 0.8 0.2 0.9
v 1 -0.6 -0.5
v 1 -0.6 0.7
v 1 0.2 -0.5
v 1 0.2 0.7
v -0.8 -0.6 -0.9
v -0.8 -0.4 -0.9
v -0.4 -0.6 -0.9
v -0.4 -0.4 -0.9
v -0.2 -0.6 -0.9
v -0.2 -0.4 -0.9
v -0.2 -0.2 -0.9
v 0.2 -0.6 -0.9
v 0.2 -0.4 -0.9
v 0.2 -0.2 -0.9
v -0.8 -0.4 -0.7
v -0.8 -0.2 -0.7
v -0.8 0.2 -0.7
v -0.4 -0.6 -0.7
v -0.4 -0.4 -0.7
v -0.4 -0.2 -0.7
v -0.2 -0.6 -0.7
v -0.2 -0.4 -0.7
v -0.2 -0.2 -0.7
v 0.2 -0.6 -0.7
v 0.2 -0.4 -0.7
v 0.2 -0.2 -0.7
v 0.4 -0.4 -0.7
v 0.4 -0.2 -0.7
v 0.8 -0.6 -0.7
v 0.8 -0.4 -0.7
v 0.8 -0.2 -0.7
v 0.8 0.2 -0.7
v -1 -0.6 -0.5
v -1 0.2 -0.5
v -0.8 -0.6 -0.5
v -0.8 -0.4 -0.5
v -0.8 -0.2 -0.5
v -0.8 0.2 -0.5
v 0.8 -0.6 -0.5
v 0.8 -0.4 -0.5
v 0.8 -0.2 -0.5
v 0.8 0.2 -0.5
v 1 -0.6 -0.5
v 1 0.2 -0.5
v -0.6 -5.96046e-008 0.1
v -0.6 0.6 0.1
v 0 -5.96046e-008 0.1
v 0 0.6 0.1
v -0.8 -5.96046e-008 0.7
v -0.8 0.2 0.7
v -0.6 -5.96046e-008 0.7
v -0.6 0.2 0.7
v 0 -5.96046e-008 0.7
v 0 0.2 0.7
v 0.8 -5.96046e-008 0.7
v 0.8 0.2 0.7
v -0.8 -5.96046e-008 -0.5
v -0.8 0.2 -0.5
v 0.8 -5.96046e-008 -0.5
v 0.8 0.2 -0.5
v -1 -0.6 0.7
v -1 0.2 0.7
v -0.8 -0.6 0.7
v -0.8 0.2 0.7
v -0.6 0.2 0.7
v -0.6 0.6 0.7
v 0 0.2 0.7
v 0 0.6 0.7
v 0.8 -0.6 0.7
v 0.8 0.2 0.7
v 1 -0.6 0.7
v 1 0.2 0.7
v -0.8 -0.6 0.9
v -0.8 0.2 0.9
v 0.8 -0.6 0.9
v 0.8 0.2 0.9
v -0.8 -0.6 -0.9
v -0.4 -0.6 -0.9
v -0.2 -0.6 -0.9
v 0.2 -0.6 -0.9
v -0.4 -0.6 -0.7
v -0.2 -0.6 -0.7
v 0.2 -0.6 -0.7
v 0.8 -0.6 -0.7
v -1 -0.6 -0.5
v -0.8 -0.6 -0.5
v 0.8 -0.6 -0.5
v 1 -0.6 -0.5
v -1 -0.6 0.7
v -0.8 -0.6 0.7
v 0.8 -0.6 0.7
v 1 -0.6 0.7
v -0.8 -0.6 0.9
v 0.8 -0.6 0.9
v -0.8 -0.4 -0.9
v -0.4 -0.4 -0.9
v -0.8 -0.4 -0.7
v -0.4 -0.4 -0.7
v -0.2 -0.2 -0.9
v 0.2 -0.2 -0.9
v -0.2 -0.2 -0.7
v 0.2 -0.2 -0.7
v -0.8 -5.96046e-008 -0.5
v 0.8 -5.96046e-008 -0.5
v -0.6 -5.96046e-008 0.1
v 0 -5.96046e-008 0.1
v -0.8 -5.96046e-008 0.7
v -0.6 -5.96046e-008 0.7
v 0 -5.96046e-008 0.7
v 0.8 -5.96046e-008 0.7
v -0.8 0.2 -0.7
v 0.8 0.2 -0.7
v -1 0.2 -0.5
v -0.8 0.2 -0.5
v 0.8 0.2 -0.5
v 1 0.2 -0.5
v -1 0.2 0.7
v -0.8 0.2 0.7
v -0.6 0.2 0.7
v 0 0.2 0.7
v 0.8 0.2 0.7
v 1 0.2 0.7
v -0.8 0.2 0.9
v 0.8 0.2 0.9
v -0.6 0.6 0.1
v 0 0.6 0.1
v -0.6 0.6 0.7
v 0 0.6 0.7

# faces
f 1/2/1 2/2/1 3/2/1
f 3/2/1 2/2/1 4/2/1
f 5/2/1 6/2/1 9/2/1
f 9/2/1 6/2/1 10/2/1
f 10/2/1 6/2/1 11/2/1
f 10/1/1 11/1/1 12/1/1
f 12/1/1 11/1/1 13/1/1
f 12/2/1 13/2/1 14/2/1
f 14/2/1 13/2/1 15/2/1
f 7/2/1 8/2/1 16/2/1
f 16/2/1 8/2/1 17/2/1
f 18/2/1 19/2/1 20/2/1
f 18/2/1 20/2/1 21/2/1
f 21/2/1 20/2/1 22/2/1
f 23/2/1 24/2/1 25/2/1
f 25/2/1 24/2/1 26/2/1
f 25/1/1 26/1/1 27/1/1
f 27/1/1 26/1/1 28/1/1
f 29/2/1 30/2/1 31/2/1
f 31/2/1 30/2/1 32/2/1
f 35/2/2 34/2/2 33/2/2
f 36/2/2 34/2/2 35/2/2
f 39/2/2 38/2/2 37/2/2
f 40/2/2 38/2/2 39/2/2
f 43/2/2 42/2/2 41/2/2
f 44/2/2 43/2/2 41/2/2
f 45/2/2 43/2/2 44/2/2
f 48/2/2 47/2/2 46/2/2
f 49/2/2 47/2/2 48/2/2
f 50/1/2 49/1/2 48/1/2
f 51/1/2 49/1/2 50/1/2
f 56/2/2 53/2/2 52/2/2
f 57/2/2 53/2/2 56/2/2
f 58/1/2 57/1/2 56/1/2
f 59/1/2 57/1/2 58/1/2
f 60/2/2 59/2/2 58/2/2
f 61/2/2 59/2/2 60/2/2
f 62/2/2 55/2/2 54/2/2
f 63/2/2 55/2/2 62/2/2
f 66/2/2 65/2/2 64/2/2
f 67/2/2 65/2/2 66/2/2
f 68/2/3 69/2/3 70/2/3
f 70/2/3 69/2/3 71/2/3
f 72/2/3 73/2/3 75/2/3
f 73/1/3 74/1/3 76/1/3
f 75/2/3 73/2/3 76/2/3
f 76/1/3 74/1/3 77/1/3
f 78/1/3 79/1/3 82/1/3
f 79/2/3 80/2/3 83/2/3
f 82/1/3 79/1/3 83/1/3
f 81/2/3 82/2/3 84/2/3
f 82/2/3 83/2/3 84/2/3
f 84/2/3 83/2/3 85/2/3
f 83/2/3 80/2/3 86/2/3
f 85/2/3 83/2/3 86/2/3
f 86/2/3 80/2/3 89/2/3
f 87/2/3 88/2/3 90/2/3
f 88/2/3 89/2/3 90/2/3
f 89/2/3 80/2/3 91/2/3
f 90/2/3 89/2/3 91/2/3
f 87/2/3 90/2/3 92/2/3
f 90/1/3 91/1/3 93/1/3
f 92/2/3 90/2/3 93/2/3
f 91/2/3 80/2/3 94/2/3
f 93/1/3 91/1/3 94/1/3
f 94/2/3 80/2/3 95/2/3
f 96/2/3 97/2/3 98/2/3
f 98/2/3 97/2/3 99/2/3
f 99/2/3 97/2/3 100/2/3
f 100/2/3 97/2/3 101/2/3
f 102/2/3 103/2/3 106/2/3
f 104/2/3 105/2/3 106/2/3
f 103/2/3 104/2/3 106/2/3
f 106/2/3 105/2/3 107/2/3
f 108/2/3 109/2/3 110/2/3
f 110/2/3 109/2/3 111/2/3
f 112/2/3 113/2/3 114/2/3
f 114/2/3 113/2/3 115/2/3
f 116/2/3 117/2/3 118/2/3
f 118/2/3 117/2/3 119/2/3
f 122/2/4 121/2/4 120/2/4
f 123/2/4 121/2/4 122/2/4
f 126/2/4 125/2/4 124/2/4
f 127/2/4 125/2/4 126/2/4
f 130/2/4 129/2/4 128/2/4
f 131/2/4 129/2/4 130/2/4
f 134/2/4 133/2/4 132/2/4
f 135/2/4 133/2/4 134/2/4
f 138/2/4 137/2/4 136/2/4
f 139/2/4 137/2/4 138/2/4
f 140/2/5 141/2/5 144/2/5
f 142/2/5 143/2/5 145/2/5
f 145/2/5 143/2/5 146/2/5
f 140/2/5 144/2/5 149/2/5
f 146/2/5 147/2/5 149/2/5
f 145/2/5 146/2/5 149/2/5
f 144/2/5 145/2/5 149/2/5
f 149/2/5 147/2/5 150/2/5
f 148/2/5 149/2/5 152/2/5
f 150/2/5 151/2/5 152/2/5
f 149/2/5 150/2/5 152/2/5
f 152/2/5 151/2/5 153/2/5
f 153/2/5 151/2/5 154/2/5
f 154/2/5 151/2/5 155/2/5
f 153/2/5 154/2/5 156/2/5
f 156/2/5 154/2/5 157/2/5
f 160/2/6 159/2/6 158/2/6
f 161/2/6 159/2/6 160/2/6
f 164/1/6 163/1/6 162/1/6
f 165/1/6 163/1/6 164/1/6
f 168/2/6 167/2/6 166/2/6
f 169/2/6 167/2/6 168/2/6
f 170/2/6 168/2/6 166/2/6
f 171/2/6 168/2/6 170/2/6
f 172/2/6 167/2/6 169/2/6
f 173/2/6 167/2/6 172/2/6
f 177/2/6 175/2/6 174/2/6
f 178/2/6 175/2/6 177/2/6
f 180/2/6 177/2/6 176/2/6
f 181/2/6 177/2/6 180/2/6
f 184/2/6 179/2/6 178/2/6
f 185/2/6 179/2/6 184/2/6
f 186/2/6 183/2/6 182/2/6
f 186/2/6 184/2/6 183/2/6
f 186/2/6 182/2/6 181/2/6
f 187/2/6 184/2/6 186/2/6
f 190/2/6 189/2/6 188/2/6
f 191/2/6 189/2/6 190/2/6
