# MagicaVoxel @ Ephtracy

# group
o 

# material
mtllib BigHouse-1.mtl
usemtl palette

# normals
vn -1 0 0
vn 1 0 0
vn 0 0 1
vn 0 0 -1
vn 0 -1 0
vn 0 1 0

# texcoords
vt 0.982422 0.5
vt 0.986328 0.5

# verts
v -1 -0.5 0.7
v -1 -0.5 -0.5
v -1 0.5 0.7
v -1 0.5 -0.5
v -0.8 -0.5 0.9
v -0.8 -0.5 0.7
v -0.8 -0.5 -0.5
v -0.8 -0.5 -0.7
v -0.8 -0.3 -0.5
v -0.8 -0.3 -0.7
v -0.8 -0.1 -0.7
v -0.8 -0.1 -0.9
v -0.8 0.1 -0.7
v -0.8 0.1 -0.9
v -0.8 0.3 -0.7
v -0.8 0.3 -0.9
v -0.8 0.5 0.9
v -0.8 0.5 0.7
v -0.8 0.5 -0.5
v -0.8 0.5 -0.7
v -0.2 -0.1 -0.7
v -0.2 -0.1 -0.9
v -0.2 0.1 -0.7
v -0.2 0.1 -0.9
v 0.4 -0.5 -0.7
v 0.4 -0.5 -0.9
v 0.4 -0.3 -0.7
v 0.4 -0.3 -0.9
v -0.4 -0.1 -0.7
v -0.4 -0.1 -0.9
v -0.4 0.1 -0.7
v -0.4 0.1 -0.9
v -0.4 0.3 -0.7
v -0.4 0.3 -0.9
v 0.2 -0.1 -0.7
v 0.2 -0.1 -0.9
v 0.2 0.1 -0.7
v 0.2 0.1 -0.9
v 0.8 -0.5 0.9
v 0.8 -0.5 0.7
v 0.8 -0.5 -0.5
v 0.8 -0.5 -0.7
v 0.8 -0.5 -0.9
v 0.8 -0.3 -0.7
v 0.8 -0.3 -0.9
v 0.8 0.1 -0.5
v 0.8 0.1 -0.7
v 0.8 0.3 -0.5
v 0.8 0.3 -0.7
v 0.8 0.5 0.9
v 0.8 0.5 0.7
v 0.8 0.5 -0.5
v 0.8 0.5 -0.7
v 1 -0.5 0.7
v 1 -0.5 -0.5
v 1 0.5 0.7
v 1 0.5 -0.5
v -0.8 -0.5 0.9
v -0.8 0.5 0.9
v 0.8 -0.5 0.9
v 0.8 0.5 0.9
v -1 -0.5 0.7
v -1 0.5 0.7
v -0.8 -0.5 0.7
v -0.8 0.5 0.7
v 0.8 -0.5 0.7
v 0.8 0.5 0.7
v 1 -0.5 0.7
v 1 0.5 0.7
v -1 -0.5 -0.5
v -1 0.5 -0.5
v -0.8 -0.5 -0.5
v -0.8 -0.3 -0.5
v -0.8 0.5 -0.5
v 0.8 -0.5 -0.5
v 0.8 0.1 -0.5
v 0.8 0.3 -0.5
v 0.8 0.5 -0.5
v 1 -0.5 -0.5
v 1 0.5 -0.5
v -0.8 -0.5 -0.7
v -0.8 -0.3 -0.7
v -0.8 -0.1 -0.7
v -0.8 0.3 -0.7
v -0.8 0.5 -0.7
v -0.4 -0.5 -0.7
v -0.4 -0.3 -0.7
v -0.4 -0.1 -0.7
v -0.4 0.1 -0.7
v -0.4 0.3 -0.7
v -0.2 -0.5 -0.7
v -0.2 -0.3 -0.7
v -0.2 -0.1 -0.7
v -0.2 0.1 -0.7
v -0.2 0.3 -0.7
v 0.2 -0.5 -0.7
v 0.2 -0.3 -0.7
v 0.2 -0.1 -0.7
v 0.2 0.1 -0.7
v 0.2 0.3 -0.7
v 0.4 -0.5 -0.7
v 0.4 -0.3 -0.7
v 0.4 0.1 -0.7
v 0.4 0.3 -0.7
v 0.8 -0.3 -0.7
v 0.8 0.1 -0.7
v 0.8 0.3 -0.7
v 0.8 0.5 -0.7
v -0.8 -0.1 -0.9
v -0.8 0.1 -0.9
v -0.8 0.3 -0.9
v -0.4 -0.1 -0.9
v -0.4 0.1 -0.9
v -0.4 0.3 -0.9
v -0.2 -0.1 -0.9
v -0.2 0.1 -0.9
v 0.2 -0.1 -0.9
v 0.2 0.1 -0.9
v 0.4 -0.5 -0.9
v 0.4 -0.3 -0.9
v 0.8 -0.5 -0.9
v 0.8 -0.3 -0.9
v -0.8 -0.5 0.9
v 0.8 -0.5 0.9
v -1 -0.5 0.7
v -0.8 -0.5 0.7
v 0.8 -0.5 0.7
v 1 -0.5 0.7
v -1 -0.5 -0.5
v -0.8 -0.5 -0.5
v -0.4 -0.5 -0.5
v -0.2 -0.5 -0.5
v 0.2 -0.5 -0.5
v 0.8 -0.5 -0.5
v 1 -0.5 -0.5
v -0.8 -0.5 -0.7
v -0.4 -0.5 -0.7
v -0.2 -0.5 -0.7
v 0.2 -0.5 -0.7
v 0.4 -0.5 -0.7
v 0.8 -0.5 -0.7
v 0.4 -0.5 -0.9
v 0.8 -0.5 -0.9
v -0.8 -0.1 -0.7
v -0.4 -0.1 -0.7
v -0.2 -0.1 -0.7
v 0.2 -0.1 -0.7
v -0.8 -0.1 -0.9
v -0.4 -0.1 -0.9
v -0.2 -0.1 -0.9
v 0.2 -0.1 -0.9
v 0.4 -0.3 -0.7
v 0.8 -0.3 -0.7
v 0.4 -0.3 -0.9
v 0.8 -0.3 -0.9
v -0.2 0.1 -0.7
v 0.2 0.1 -0.7
v -0.2 0.1 -0.9
v 0.2 0.1 -0.9
v -0.8 0.3 -0.7
v -0.4 0.3 -0.7
v -0.8 0.3 -0.9
v -0.4 0.3 -0.9
v -0.8 0.5 0.9
v 0.8 0.5 0.9
v -1 0.5 0.7
v -0.8 0.5 0.7
v 0.8 0.5 0.7
v 1 0.5 0.7
v -1 0.5 -0.5
v -0.8 0.5 -0.5
v 0.8 0.5 -0.5
v 1 0.5 -0.5
v -0.8 0.5 -0.7
v 0.8 0.5 -0.7

# faces
f 3/2/1 2/2/1 1/2/1
f 4/2/1 2/2/1 3/2/1
f 9/1/1 8/1/1 7/1/1
f 10/1/1 8/1/1 9/1/1
f 11/2/1 10/2/1 9/2/1
f 13/2/1 11/2/1 9/2/1
f 13/2/1 12/2/1 11/2/1
f 14/2/1 12/2/1 13/2/1
f 15/2/1 13/2/1 9/2/1
f 15/1/1 14/1/1 13/1/1
f 16/1/1 14/1/1 15/1/1
f 17/2/1 6/2/1 5/2/1
f 18/2/1 6/2/1 17/2/1
f 19/2/1 15/2/1 9/2/1
f 20/2/1 15/2/1 19/2/1
f 23/2/1 22/2/1 21/2/1
f 24/2/1 22/2/1 23/2/1
f 27/1/1 26/1/1 25/1/1
f 28/1/1 26/1/1 27/1/1
f 29/2/2 30/2/2 31/2/2
f 31/2/2 30/2/2 32/2/2
f 31/1/2 32/1/2 33/1/2
f 33/1/2 32/1/2 34/1/2
f 35/2/2 36/2/2 37/2/2
f 37/2/2 36/2/2 38/2/2
f 41/2/2 42/2/2 44/2/2
f 42/1/2 43/1/2 44/1/2
f 44/1/2 43/1/2 45/1/2
f 41/2/2 44/2/2 46/2/2
f 46/2/2 44/2/2 47/2/2
f 46/1/2 47/1/2 48/1/2
f 48/1/2 47/1/2 49/1/2
f 39/2/2 40/2/2 50/2/2
f 50/2/2 40/2/2 51/2/2
f 48/2/2 49/2/2 52/2/2
f 52/2/2 49/2/2 53/2/2
f 54/2/2 55/2/2 56/2/2
f 56/2/2 55/2/2 57/2/2
f 60/2/3 59/2/3 58/2/3
f 61/2/3 59/2/3 60/2/3
f 64/2/3 63/2/3 62/2/3
f 65/2/3 63/2/3 64/2/3
f 68/2/3 67/2/3 66/2/3
f 69/2/3 67/2/3 68/2/3
f 70/2/4 71/2/4 72/2/4
f 72/2/4 71/2/4 73/2/4
f 73/2/4 71/2/4 74/2/4
f 75/2/4 76/2/4 79/2/4
f 77/2/4 78/2/4 79/2/4
f 76/2/4 77/2/4 79/2/4
f 79/2/4 78/2/4 80/2/4
f 81/1/4 82/1/4 86/1/4
f 82/2/4 83/2/4 87/2/4
f 86/1/4 82/1/4 87/1/4
f 87/2/4 83/2/4 88/2/4
f 84/2/4 85/2/4 90/2/4
f 88/2/4 89/2/4 91/2/4
f 89/2/4 90/2/4 91/2/4
f 86/2/4 87/2/4 91/2/4
f 87/2/4 88/2/4 91/2/4
f 91/2/4 90/2/4 92/2/4
f 92/2/4 90/2/4 93/2/4
f 93/2/4 90/2/4 94/2/4
f 90/2/4 85/2/4 95/2/4
f 94/2/4 90/2/4 95/2/4
f 91/1/4 92/1/4 96/1/4
f 92/2/4 93/2/4 97/2/4
f 96/1/4 92/1/4 97/1/4
f 97/2/4 93/2/4 98/2/4
f 94/1/4 95/1/4 99/1/4
f 95/2/4 85/2/4 100/2/4
f 99/1/4 95/1/4 100/1/4
f 98/2/4 99/2/4 101/2/4
f 97/2/4 98/2/4 101/2/4
f 99/2/4 100/2/4 101/2/4
f 96/2/4 97/2/4 101/2/4
f 101/2/4 100/2/4 102/2/4
f 102/2/4 100/2/4 103/2/4
f 100/2/4 85/2/4 104/2/4
f 103/2/4 100/2/4 104/2/4
f 102/2/4 103/2/4 105/2/4
f 103/1/4 104/1/4 106/1/4
f 105/2/4 103/2/4 106/2/4
f 104/2/4 85/2/4 107/2/4
f 106/1/4 104/1/4 107/1/4
f 107/2/4 85/2/4 108/2/4
f 109/2/4 110/2/4 112/2/4
f 110/1/4 111/1/4 113/1/4
f 112/2/4 110/2/4 113/2/4
f 113/1/4 111/1/4 114/1/4
f 115/2/4 116/2/4 117/2/4
f 117/2/4 116/2/4 118/2/4
f 119/1/4 120/1/4 121/1/4
f 121/1/4 120/1/4 122/1/4
f 126/2/5 124/2/5 123/2/5
f 127/2/5 124/2/5 126/2/5
f 129/2/5 126/2/5 125/2/5
f 129/2/5 128/2/5 127/2/5
f 129/2/5 127/2/5 126/2/5
f 130/2/5 128/2/5 129/2/5
f 131/2/5 128/2/5 130/2/5
f 132/2/5 128/2/5 131/2/5
f 133/2/5 128/2/5 132/2/5
f 134/2/5 128/2/5 133/2/5
f 135/2/5 128/2/5 134/2/5
f 136/1/5 131/1/5 130/1/5
f 137/2/5 132/2/5 131/2/5
f 137/1/5 131/1/5 136/1/5
f 138/1/5 133/1/5 132/1/5
f 138/2/5 132/2/5 137/2/5
f 139/2/5 134/2/5 133/2/5
f 139/1/5 133/1/5 138/1/5
f 140/2/5 134/2/5 139/2/5
f 141/2/5 134/2/5 140/2/5
f 142/1/5 141/1/5 140/1/5
f 143/1/5 141/1/5 142/1/5
f 148/2/5 145/2/5 144/2/5
f 149/2/5 145/2/5 148/2/5
f 150/2/5 147/2/5 146/2/5
f 151/2/5 147/2/5 150/2/5
f 152/1/6 153/1/6 154/1/6
f 154/1/6 153/1/6 155/1/6
f 156/2/6 157/2/6 158/2/6
f 158/2/6 157/2/6 159/2/6
f 160/1/6 161/1/6 162/1/6
f 162/1/6 161/1/6 163/1/6
f 164/2/6 165/2/6 167/2/6
f 167/2/6 165/2/6 168/2/6
f 166/2/6 167/2/6 170/2/6
f 168/2/6 169/2/6 170/2/6
f 167/2/6 168/2/6 170/2/6
f 170/2/6 169/2/6 171/2/6
f 171/2/6 169/2/6 172/2/6
f 172/2/6 169/2/6 173/2/6
f 171/2/6 172/2/6 174/2/6
f 174/2/6 172/2/6 175/2/6
